<?xml version="1.0" encoding="UTF-8"?> <svg xmlns="http://www.w3.org/2000/svg" xmlns:xlink="http://www.w3.org/1999/xlink" width="789" height="582"><defs><path id="a" d="M0 0.145L164.178 0.145 164.178 306.842 0 306.842z"></path></defs><g fill="none" fill-rule="evenodd"><path fill="#99CFA1" d="M715.972 472.766c-6.761 24.417 4.843 89.213 19.926 92.804 19.949 4.748 18.764-30.88 17.492-54.836-1.248-23.519-30.656-62.385-37.418-37.968"></path><path fill="#FFF" d="M723.318 470.261a.92.92 0 0 0-.042 1.354c.196.199 19.73 20.592 21.696 87.455.017.518.465.93 1.014.93h.026c.562-.015 1.004-.456.988-.984-1.993-67.75-21.426-87.891-22.25-88.716a1.055 1.055 0 0 0-1.432-.039"></path><path fill="#75AF7C" d="M724.012 468.735c-.406 1.212 9.668 13.11 14.488 27.974 4.184 12.9 9.313 45.783 8.398 62.432-.144 2.62 5.286.692 6.061-26.705.224-7.868-.459-25.212-2.309-30.442-8.661-24.497-25.285-37.296-26.638-33.259"></path><path fill="#99CFA1" d="M753.405 533.91c-4.175 11.857-8.11 34.005 11.547 35.075 14.862.81 28.452-31.133 22.698-45.16-5.756-14.025-27.769-8.312-34.245 10.085"></path><path fill="#FFF" d="M781.684 521.046c-.281.082-28.132 8.766-25.51 43.065.04.503.484.889 1.01.889.024 0 .049-.002.075-.004.556-.038.975-.495.937-1.023-2.507-32.75 23.01-40.779 24.097-41.103.532-.16.828-.696.66-1.199-.168-.505-.737-.788-1.269-.625"></path><path fill="#75AF7C" d="M784.648 524.017c-4.566-.4-12.085 6.238-15.046 9.358-9.316 9.812-10.786 27.408-8.867 32.121 2.35 5.77 16.835 2.028 23.212-16.06 6.378-18.09 4.137-25.118.7-25.419"></path><path fill="#DF2A61" d="M620.297 450.272c-22.66 21.206-121.711 22.19-226.578 23.231-151.493 1.505-323.2 3.212-330.712 64.35-.067.56.328 1.07.883 1.141a1.018 1.018 0 0 0 1.131-.89c7.291-59.36 178.056-61.057 328.719-62.553 109.84-1.091 204.7-2.034 227.937-23.778.41-.384.432-1.031.053-1.445a1.009 1.009 0 0 0-1.433-.056"></path><path fill="#782FE5" d="M611.958 467.327c-49.087 20.972-308.087 10.452-417.77 24.48-88.893 11.368-114.192 42.14-102.521 56.077 13.66 16.308 217.283 12.271 234.898 3.168 20.648-10.672-55.415-45.192 1.036-44.554 340.337 3.838 359.17-25.964 359.399-34.044.526-19.036-51.656-15.12-75.042-5.127"></path><path fill="#DF2A61" d="M192.887 484.007c-64.363 6.833-99.253 19.187-116.664 41.31a1.054 1.054 0 0 0 .152 1.454.997.997 0 0 0 1.419-.156c17.04-21.652 51.522-33.779 115.3-40.55.554-.06.956-.568.9-1.136-.056-.569-.563-.989-1.107-.922"></path><path fill="#FFF" d="M237.769 499.034c-29.35 7.779-41.552 21.361-39.56 44.035.044.533.475.931.98.931.03 0 .06-.002.091-.004.542-.052.943-.55.893-1.112-1.884-21.475 9.86-34.388 38.084-41.87.529-.138.848-.694.712-1.243-.135-.546-.671-.882-1.2-.737m112.256-8.938c-30.574-.762-88.526 3.27-89.107 3.308-.553.04-.963.429-.914.868.048.414.484.728 1.001.728l.091-.003c.58-.04 58.426-4.063 88.866-3.304.62.031 1.019-.335 1.038-.774.017-.442-.42-.81-.975-.823m150.907-.094c-20.878.588-102.074.108-102.892.104h-.007c-.568 0-1.029.376-1.033.845-.006.472.453.857 1.025.86.507.004 32.003.189 60.821.189 17.61 0 34.223-.07 42.154-.292.572-.016 1.019-.41 1-.882-.02-.47-.506-.86-1.068-.824m123.817-12.977c-10.334 2.2-57.288 9.547-77.77 10.18-.559.016-1 .432-.979.929.02.484.47.866 1.013.866h.037c20.993-.648 67.462-7.95 78.173-10.228.544-.115.88-.6.749-1.082-.13-.482-.664-.782-1.223-.665"></path><path fill="#99CFA1" d="M161.446 240c-36.531-.197-36.505 63.039-36.378 88.805.093 18.482-36.502 84.166-8.54 124.806 27.966 40.64 57.104 10.488 72.956-27.198 15.854-37.686-26.884-69.706-29.826-97.052-2.945-27.344 45.888-89.123 1.788-89.361"></path><path fill="#75AF7C" d="M164.66 252c-7.755-.015-22.463 50.524-25.32 104.103C136.484 409.68 152.54 463 152.54 463s24.405-14.633 29.905-40.158c5.5-25.523-31.624-83.038-32.312-92.226-.687-9.188 33.241-78.58 14.528-78.616"></path><path fill="#FFF" d="M158.347 250.076c-.538-.211-1.16.031-1.384.55-45.518 105.26-9.377 213.592-9.007 214.675.146.428.56.699 1.006.699.11 0 .22-.015.332-.05.554-.177.857-.75.673-1.285-.365-1.075-36.27-108.69 8.952-213.26.224-.518-.032-1.114-.572-1.329"></path><path fill="#FFF" d="M167.39 272.157c-9.87 6.064-19.176 19.64-20.207 21.167a1.082 1.082 0 0 0 .28 1.49 1.055 1.055 0 0 0 1.473-.281c1.002-1.49 10.066-14.712 19.555-20.543.5-.308.658-.966.356-1.472a1.05 1.05 0 0 0-1.457-.36"></path><g transform="translate(0 178)"><mask id="b" fill="#fff"><use xlink:href="#a"></use></mask><path fill="#99CFA1" d="M114.012 164.735c-21.427-17.591 28.62-52.688-6.852-76.421C89.695 76.63 81.828 60.67 60.83 28.736 38.825-4.735 17.666-5.64 4.994 9.76c-18.403 22.363 21.296 47.98 3.783 98.496-15.291 44.104 47.505 64.93 35.28 99.237-21.47 60.258 28.412 96.594 58.483 99.22 38.917 3.395 110.537-60.65 11.473-141.978" mask="url(#b)"></path></g><path fill="#75AF7C" d="M103.515 352.332c-19.286-16.807 11.776-50.534-7.7-70.564-19.476-20.033-54.783-95.975-71.789-96.742-28.308-1.279 37.31 44.943 48.764 192.277 6.895 88.701 42.876 118.555 59.125 94.922 33.623-48.896 14.176-82.79-28.4-119.893"></path><path fill="#FFF" d="M105.45 479.074c-24.909-12.841-36.252-45.894-39.155-114.086-2.837-66.652-42.834-152.807-47.386-162.41a.997.997 0 0 0-1.34-.477c-.5.244-.71.851-.47 1.359 4.535 9.565 44.371 95.368 47.191 161.617 2.937 69.034 14.599 102.588 40.251 115.812a.993.993 0 0 0 1.35-.446 1.023 1.023 0 0 0-.44-1.37"></path><path fill="#FFF" d="M20.751 259.245a1.065 1.065 0 0 0-1.509.152 1.1 1.1 0 0 0 .15 1.53c.145.121 14.597 12.16 22.813 19.788a1.053 1.053 0 0 0 1.513-.07c.4-.442.37-1.13-.066-1.537-8.261-7.667-22.755-19.742-22.9-19.863m-6.265 44.892a.99.99 0 0 0-1 1.707c21.946 12.966 38.606 32.608 38.772 32.804a.986.986 0 0 0 1.391.118.995.995 0 0 0 .118-1.397c-.17-.198-17.039-20.091-39.28-33.232m32.279 96.134a1.072 1.072 0 0 0-1.49.064 1.02 1.02 0 0 0 .065 1.46c8.264 7.434 23.604 27.586 23.76 27.789.206.271.522.416.845.416.219 0 .44-.066.629-.205a1.02 1.02 0 0 0 .214-1.447c-.632-.834-15.614-20.511-24.023-28.077M94.18 293.32c-10.707 11.03-21.624 33.324-22.084 34.268-.241.497-.013 1.088.513 1.32.143.061.293.091.44.091.395 0 .776-.216.952-.578.11-.229 11.236-22.952 21.721-33.755a.956.956 0 0 0-.061-1.404 1.087 1.087 0 0 0-1.48.058m23.845 94.117c-22.593 30.668-17.567 75.212-17.514 75.658.061.52.532.904 1.076.904.04 0 .08-.002.122-.006.593-.063 1.022-.566.955-1.124-.053-.437-4.983-44.242 17.142-74.277.341-.46.218-1.094-.274-1.412-.491-.32-1.168-.203-1.507.257"></path><path fill="#307FA5" d="M420.131 250L389 253.115s13.445 18.868 30.08 19.803c16.636.936 15.04-6.317 14.74-11.465-.3-5.146-2.207-7.72-13.689-11.453"></path><path fill="#004F77" d="M455.082 389.946l-154.99-13.943c-.5-.043-1.038.369-1.088.937a1.024 1.024 0 0 0 .914 1.115l154.99 13.941c.03.004.059.004.09.004.513 0 .952-.404.998-.939a1.023 1.023 0 0 0-.914-1.115"></path><path fill="#307FA5" d="M301 381c-12.703 0-23 10.297-23 23 0 12.701 10.297 23 23 23s23-10.299 23-23c0-12.703-10.297-23-23-23m-86.936-71.849c-1.5-.495-3.132.264-3.647 1.688l-21.26 58.553c-.516 1.422.282 2.968 1.779 3.458.31.102.625.15.934.15 1.19 0 2.303-.709 2.713-1.836l21.26-58.555c.516-1.42-.282-2.968-1.779-3.458"></path><path fill="#FFF" d="M283.171 335l-18.592 19.2s-10.286 20.828-17.439 29.444c-7.153 8.616 4.916 15.169 17.133 5.712 12.22-9.46 16.54-19.504 31.327-27.583C310.385 353.693 283.17 335 283.17 335"></path><path fill="#004F77" d="M296.98 357c-.548.014-.984.426-.972.97-.002.025-.423 2.52-8.286 7.32-3.95 2.41-9.26 8.18-14.883 14.288-4.362 4.737-8.87 9.634-12.653 12.802-3.56 2.982-8.475 3.033-10.822 2.116a1.004 1.004 0 0 0-1.294.557.982.982 0 0 0 .563 1.279c1.103.43 2.472.668 3.951.668 2.92 0 6.274-.924 8.892-3.115 3.882-3.25 8.435-8.195 12.837-12.978 5.282-5.74 10.748-11.675 14.455-13.94 8.861-5.407 9.245-8.415 9.232-8.964-.014-.545-.476-1.027-1.02-1.002m-50.76 12.98c-.4-.356-.128-.984.172-1.447 1.326-2.055 5.725-4.65 11.168-4.65.976 0 1.984.084 3.012.269-6.276 3.842-13.107 6.94-14.351 5.828m17.086-7.106c-8.377-2.611-16.348 1.116-18.65 4.688-.932 1.447-.87 2.863.168 3.785.516.456 1.248.652 2.136.652 4.68 0 13.593-5.505 16.605-7.457a.922.922 0 0 0 .424-.907.963.963 0 0 0-.683-.761"></path><path fill="#004F77" d="M262.433 361.464c.185-.975.667-2.324 1.653-2.247 1.486.09 3.53 2.461 3.517 3.516-.365.283-2.672-.215-5.17-1.27m1.751-3.458c-.983-.057-2.674.327-3.178 3.578a.57.57 0 0 0 .232.538.65.65 0 0 0 .34.329c.962.416 3.743 1.55 5.596 1.55.452 0 .85-.068 1.15-.23.432-.23.67-.62.676-1.095.009-1.529-2.459-4.524-4.816-4.67m-2.724 5.08a1.062 1.062 0 0 0-.784-.02.99.99 0 0 0-.562.523c-.041.088-4.01 8.814-10.622 12.612a.947.947 0 0 0-.348 1.33c.192.302.528.47.874.47.175 0 .355-.045.52-.138 5.77-3.313 9.542-9.776 10.89-12.388.883.914 2.061 2.994 1.298 7.277-.094.528.277 1.028.83 1.12.545.083 1.076-.266 1.17-.794 1.41-7.896-3.073-9.91-3.266-9.993"></path><path fill="#52B8D1" d="M193 210.647L204.296 224 212 217.699 198.426 205z"></path><path fill="#E6E6E6" d="M137.118 513.728c-2.806 8.811 45.413 4.993 45.878 0 .465-4.994-43.493-7.491-45.878 0" opacity=".193"></path><path fill="#E6E6E6" d="M391.577 488.82c-11.65 3.153-90.73 2.182-99.05 12.547-18.467 23.003 69.354 26.486 99.05 15.98C421.273 506.84 491.84 510.76 492 501.367c.159-9.394-88.773-15.7-100.423-12.547" opacity=".241"></path><path fill="#FFF" d="M350.337 481.548s-20.216 11.656-30.91 14.825c-10.696 3.169-4.742 15.561 10.513 14.57 15.252-.99 24.488-6.974 41.015-5.34 16.53 1.635 5.349-29.603 5.349-29.603l-25.967 5.548z"></path><path fill="#04324F" d="M249.193 267.154c-4.849 14.852-6.858 40.991 14.166 87.93 2.817 6.289 24.329-3.923 23.726-15.859-1.354-26.873-.685-56.025-.685-56.025l91.083-16.565L382 220l-55.562 5.487s-73.75 30.963-77.245 41.667m-46.305 150.273l-25.104-10.071c-2.531-1.018-5.416.222-6.43 2.766a4.97 4.97 0 0 0 2.758 6.451l25.105 10.071c.601.242 1.223.356 1.833.356a4.949 4.949 0 0 0 4.595-3.122c1.014-2.546-.22-5.434-2.757-6.451"></path><path fill="#A5DDEB" d="M197.029 353.238a4.399 4.399 0 0 0-5.582 2.738l-19.208 56.19a4.405 4.405 0 0 0 4.157 5.834 4.4 4.4 0 0 0 4.158-2.978l19.208-56.191a4.409 4.409 0 0 0-2.733-5.593"></path><path fill="#04324F" d="M199.686 426.593h-.002c-20.496 56.86-39.59 84.337-45.814 87.15-2.995-6.135-.167-39.477 20.329-96.335 20.496-56.858 39.595-84.337 45.816-87.15 2.995 6.135.169 39.477-20.33 96.335m23.836-106.059c-7.73-2.79-16.543 5.263-28.594 26.093-10.03 17.338-20.738 41.267-30.152 67.383-3.744 10.386-35.954 101.691-14.41 109.457a8.772 8.772 0 0 0 3.002.533c7.016 0 15.071-8.444 25.59-26.626 10.03-17.336 20.738-41.269 30.153-67.385 9.414-26.116 16.439-51.374 19.778-71.122 4.012-23.727 2.354-35.55-5.367-38.333m220.978 170.961c-50.175 0-90.992-40.82-90.992-90.995 0-50.174 40.817-90.995 90.992-90.995 50.175 0 90.994 40.821 90.994 90.995 0 50.176-40.819 90.995-90.994 90.995m0-190.495C389.636 301 345 345.636 345 400.5s44.636 99.5 99.499 99.5C499.363 500 544 455.364 544 400.5S499.363 301 444.499 301"></path><path fill="#A5DDEB" d="M303.918 397.25l-61.683-100.5h140.417l58.332 100.5H303.918zM389 290.188a4.4 4.4 0 0 0-3.81-2.188H234.4c-1.59 0-3.059.854-3.837 2.234a4.353 4.353 0 0 0 .083 4.42l67.051 109.25A4.404 4.404 0 0 0 301.45 406h147.153a4.404 4.404 0 0 0 3.81-2.188 4.363 4.363 0 0 0 0-4.374L389 290.188z"></path><path fill="#A5DDEB" d="M405.17 262.832c-1.983-1.414-4.76-.983-6.2.966L298.847 399.087a4.303 4.303 0 0 0 .983 6.082c.789.562 1.7.831 2.604.831a4.463 4.463 0 0 0 3.597-1.797l100.122-135.289c1.44-1.946.998-4.669-.984-6.082m-158.131-9.563c-2.346-.828-4.955.32-5.824 2.579l-18.931 49.282c-.87 2.258.333 4.765 2.68 5.6.519.185 1.05.27 1.571.27 1.845 0 3.576-1.088 4.254-2.849l18.93-49.282c.868-2.258-.334-4.767-2.68-5.6"></path><path fill="#A5DDEB" d="M304.464 280.705l-60.014-27.713-55.902-31.426c-2.103-1.185-4.782-.45-5.978 1.641a4.333 4.333 0 0 0 1.655 5.93l56.052 31.511 60.487 27.945a4.384 4.384 0 0 0 1.845.407c1.655 0 3.238-.93 3.98-2.515 1.023-2.18.07-4.766-2.125-5.78"></path><path fill="#04324F" d="M371.837 239.71l2.515 21.87s-27.62 205.977-25.202 217.852c2.419 11.874 26.525 9.945 29.605 3.037 3.078-6.906 13.055-100.716 16.229-115.231 3.174-14.518 29.093-86.1 29.016-113.05-.043-15.339-11.112-38.188-11.112-38.188l-41.051 23.71z"></path><path fill="#52B8D1" d="M318 228.199v13.363s1.78 8.465 39.28 10.246c37.497 1.782 65.216-9.353 67.72-12.473L420.685 224 318 228.199z"></path><path fill="#52B8D1" d="M359.027 93.857c-18.471-10.44-61.891-8.505-80.698 2.723-34.163 20.396-89.13 95.32-79.133 111.902 3.138 5.204 12.88 17.046 18.316 14.805 23.279-9.6 57.876-79.135 57.876-79.135 19.52 14.965 43.656 84.73 49.541 94.17 7.039 11.29 78.448 10.911 98.675-6.393 22.569-19.307-30.84-119.007-64.577-138.072"></path><path fill="#52B8D1" d="M296.579 75.95c-12.317 15.93 3.381 24.53 10.073 24.914 10.285.588 35.949-.403 40.08-9.59 9.166-20.387-33.815-36.457-50.153-15.324"></path><path fill="#004F77" d="M378.483 155.078c-.447-.196-.971-.008-1.176.414-1.888 3.912-7.944 8.984-8.005 9.035a.811.811 0 0 0-.082 1.186.9.9 0 0 0 .667.287.91.91 0 0 0 .585-.209c.26-.217 6.4-5.357 8.448-9.598.203-.422.008-.923-.437-1.115m-.954-7.967a.94.94 0 0 0-1.248.34c-1.34 2.295-5.199 8.567-6.96 10.006a.85.85 0 0 0-.1 1.236.933.933 0 0 0 .695.307.93.93 0 0 0 .596-.21c2.37-1.939 7.169-10.139 7.372-10.486a.856.856 0 0 0-.355-1.193m-41.771-47.526c-25.34 5.42-35.735 1.235-39.029-.818-2.06-1.283-2.685-2.47-2.727-2.97-.045-.476-.532-.832-1.076-.794-.551.036-.965.45-.923.924.118 1.341 1.446 2.926 3.554 4.24 2.749 1.71 8.155 3.833 18.064 3.833 5.846 0 13.263-.74 22.619-2.74.536-.116.863-.583.73-1.046-.13-.46-.668-.738-1.212-.629"></path><path fill="#934B4F" d="M335.967 41.998c-.284-3.882.991-7.95.294-12.548-5.224-34.431-52.735-12.662-52.735-12.662L278 36.056c11.783 25.08 15.165 38.482 31.166 44.457 9.155 3.418 28.096 1.327 28.653-10.297.3-6.245 1.989-10.972.706-21.047-.601-4.728-2.443-5.617-2.558-7.17"></path><path fill="#FAB657" d="M337 32.695l.006 1.305c.286-3.537-.006-1.305-.006-1.305"></path><path fill="#FAB657" d="M345 9.6l-13.297-1.208 6.91-6.661-18.93 3.098L321.689 0s-7.837.69-19.943 4.829c-12.104 4.137-20.841 6.497-20.841 19.615 0 0-19.29 19.552 18.648 50.556 0 0-4.126-5.565-7.13-15.046-.805-2.54-1.47-15.905 3.227-16.725 15.149-2.647 37.26-27.937 41.563-9.399l-.056-15.09L345 9.6z"></path><path fill="#934B4F" d="M330.1 72.095l-37.279-15.619c-.974-.711-3.01-5.652-3.01-5.652S285.917 50 284.678 50c-1.24 0-2.175 3.536-1.386 5.404.789 1.87 4.991 6.91 7.019 7.898 2.029.99 3.649.615 3.649.615l1.884 6.18 5.6 13.105s12.08 5.388 24.7 1.21 3.957-12.317 3.957-12.317"></path><path fill="#004F77" d="M420.322 232.277c-.132.129-13.766 12.728-63.676 12.728l-.655-.002h-.002a.994.994 0 0 0-.989.996.99.99 0 0 0 .987 1l.675.001c50.905 0 64.485-12.745 65.04-13.29a1 1 0 0 0 .019-1.406.988.988 0 0 0-1.399-.027"></path><path fill="#542B2D" d="M334.106 36.009c-1.298-.036-5.61-.028-6.936 1.381-1.648 1.748-1.449 6.882-.066 9.178.369.614.763 1.178 1.145 1.72.703 1.002 1.312 1.867 1.585 2.832.453 1.604-1.448 4.614-2.753 6.136-.35.408-.34 1.061.023 1.455a.864.864 0 0 0 .635.289.86.86 0 0 0 .656-.315c.424-.49 4.11-4.904 3.182-8.19-.375-1.324-1.114-2.373-1.895-3.483-.353-.505-.72-1.026-1.064-1.598-1.045-1.734-1.018-5.65-.193-6.527.526-.563 3.36-.883 5.64-.822.469-.012.924-.437.935-1.005.01-.568-.39-1.04-.894-1.051m-12.084 2.02c-6.749-.329-11.008 2.18-14.767 4.38-1.282.748-2.494 1.456-3.706 1.99-.505.221-.697.738-.426 1.152.188.287.548.449.915.449.166 0 .333-.031.49-.1 1.329-.585 2.593-1.324 3.929-2.105 3.653-2.137 7.457-4.34 13.447-4.067.571.066 1.062-.332 1.094-.8.034-.471-.405-.872-.976-.899m3.897 27.92c-.048.016-4.799 1.563-8.558-1.744a.81.81 0 0 0-1.16.083.841.841 0 0 0 .081 1.176c2.313 2.034 4.897 2.536 6.88 2.536 1.84 0 3.165-.431 3.275-.47a.834.834 0 0 0 .52-1.054.814.814 0 0 0-1.038-.527"></path><path fill="#04324F" d="M200.367 225.296l-36.77-20.646c-2.467-1.386-5.583-.483-6.954 2.017-1.37 2.5-.48 5.65 1.992 7.036l36.769 20.646c.786.442 1.636.651 2.477.651a5.103 5.103 0 0 0 4.477-2.666c1.369-2.5.477-5.652-1.991-7.038m134.684 69.742l-34.831-16.554c-2.553-1.212-5.57-.069-6.749 2.547-1.179 2.616-.07 5.72 2.478 6.932l34.831 16.554a4.98 4.98 0 0 0 2.133.483c1.921 0 3.758-1.124 4.616-3.03 1.179-2.616.07-5.721-2.478-6.932"></path><path fill="#004F77" d="M377.21 499.402c-.018.017-1.802 1.748-11.03 1.272-4.643-.234-12.32 1.422-20.46 3.18-6.316 1.364-12.85 2.775-17.786 3.219-4.623.416-8.706-2.184-10.105-4.168-.309-.436-.925-.548-1.384-.262-.458.288-.583.873-.278 1.306 1.808 2.557 6.086 5.051 10.784 5.051.39 0 .782-.018 1.175-.053 5.063-.456 11.66-1.881 18.037-3.258 7.649-1.65 15.564-3.372 19.907-3.135 10.405.523 12.45-1.617 12.758-2.054.303-.435.2-1.049-.26-1.335-.456-.284-1.055-.2-1.358.237m-49.232-16.004c-.11-.487.481-.845.993-1.06.774-.32 1.865-.51 3.14-.51 3.149 0 7.424 1.158 10.756 4.323-7.284-.179-14.553-1.239-14.89-2.753m.191-2.72c-1.603.668-2.392 1.823-2.113 3.086.87 3.93 14.735 4.236 18.963 4.236.372 0 .71-.195.878-.503a.853.853 0 0 0-.093-.953c-5.126-6.372-13.677-7.517-17.635-5.866m24.449 12.501c-1.005.743-4.178-1.344-6.441-3.362 2.959-1.505 5.265-1.52 6.402-.014.869 1.153.743 2.848.039 3.376m-8.185-4.375a.826.826 0 0 0-.417.876c-.05.261.03.541.243.745.91.873 4.94 4.575 7.884 4.575.59 0 1.137-.148 1.604-.5 1.537-1.147 1.685-3.85.313-5.671-.686-.91-3.41-3.602-9.627-.025"></path><path fill="#004F77" d="M342.532 488.254c-.882.896-3.573 3.181-5.558 3.181l-.094-.001c-.532-.033-.86.317-.88.75-.017.43.345.795.811.813.054.001.106.003.16.003 3.08 0 6.43-3.307 6.809-3.69a.744.744 0 0 0-.055-1.105.892.892 0 0 0-1.193.05"></path><path fill="#934B4F" d="M191.926 212.24s-17.117-6.726-20.891-.796c-2.279 3.578-5.164 13.18-.67 12.6 0 0 .441 4.537 4.27 4.166 0 0 1.324 3.993 4.732 2.43 0 0 .57 3.49 4.338 1.982 2.24-.899 1.397-8.317 5.036-9.735l7.282 3.893s2.761.932 6.382-2.853c3.621-3.783-10.479-11.687-10.479-11.687M313.384 277s-12.05 1.757-12.379 8.561c-.2 4.107 5.386 15.197 8.712 12.879 0 0 2.409 3.87 5.299 2.002 0 0 2.864 3.03 4.877.27 0 0 2.04 2.882 4.362.025 1.385-1.7-2.653-6.96-.389-9.686 0 0 4.372-1.93 5.111-7.009.717-4.916-15.593-7.042-15.593-7.042"></path><path fill="#52B8D1" d="M337.227 121.152c-11.845 42.131-30.034 112.874-29.2 145.864.174 6.846 22.738 14.521 26.991 9.214 14.059-17.538 30.126-114.942 33.89-152.715 1.825-18.319-24.105-29.312-31.681-2.363"></path><path fill="#FFF" d="M337.278 128.048c-.558-.169-1.126.123-1.3.64-.179.538-17.918 54.019-23.964 89.17-.092.536.29 1.042.854 1.129.056.01.114.013.17.013.498 0 .936-.343 1.02-.824 6.022-35.011 23.716-88.359 23.893-88.893.173-.52-.13-1.072-.673-1.235"></path><path fill="#52B8D1" d="M312 277.673s6.632 5.001 17.337 5.327l4.663-7.594L314.881 272 312 277.673z"></path><path fill="#934B4F" d="M192.39 227.63c-2.016 2.376-1.872 4.825.648 5.345 2.52.52 9.65-7.052 10.962-11.975l-6.24 1.21s-3.353 3.043-5.37 5.42"></path><path fill="#307FA5" d="M237.6 159.386a.86.86 0 0 0-1.229-.218.942.942 0 0 0-.21 1.277l6.24 9.167a.868.868 0 0 0 .718.388.858.858 0 0 0 .51-.17.941.941 0 0 0 .21-1.277l-6.24-9.167zm.825-5.188a.873.873 0 0 0-1.225.117.867.867 0 0 0 .117 1.223l11.258 9.264a.87.87 0 0 0 1.109-1.341l-11.26-9.263zm-.361 165.953c-1.499-.495-3.13.266-3.647 1.688l-21.26 58.553c-.516 1.422.282 2.968 1.779 3.458.31.102.625.15.934.15 1.19 0 2.303-.709 2.713-1.836l21.26-58.553c.516-1.422-.282-2.97-1.779-3.46"></path><path fill="#A5DDEB" d="M238.315 310l-22.882-9.676a4.051 4.051 0 0 0-3.319.065c-1.051.493-1.872 1.416-2.272 2.559l-3.575 10.207c-.819 2.339.309 4.937 2.523 5.803 2.211.87 4.669-.327 5.486-2.666l2.055-5.864 15.05 6.366-1.683 5.238c-.759 2.36.435 4.925 2.668 5.728.456.163.919.24 1.375.24 1.778 0 3.44-1.182 4.042-3.063l2.988-9.292c.733-2.272-.348-4.752-2.456-5.645M222 363.234a4.405 4.405 0 0 0-5.59 2.783l-19.178 57.126c-.778 2.322.462 4.838 2.77 5.623.466.159.943.234 1.41.234a4.414 4.414 0 0 0 4.179-3.02l19.176-57.123c.78-2.322-.46-4.838-2.767-5.623"></path><path fill="#004F77" d="M211.276 348.043a1.019 1.019 0 0 0-1.265.659l-17.969 58.03a.983.983 0 0 0 .682 1.226c.098.029.197.042.29.042.438 0 .84-.275.973-.7l17.97-58.032a.983.983 0 0 0-.681-1.225m-24.207 75.39l-21.882 30.01c-.332.451-.21 1.072.273 1.383.183.118.392.174.598.174.336 0 .668-.15.871-.431l21.885-30.009c.332-.452.207-1.073-.273-1.383-.482-.315-1.142-.198-1.472.256m3.047 2.567h-.012c-.489 0-.889.43-.894.967l-.21 18.041c-.007.541.388.986.882.992h.012c.49 0 .889-.43.896-.965l.21-18.043c.007-.541-.39-.986-.884-.992m232.908-105.38c-.214-.507-.828-.752-1.364-.548-.537.2-.8.77-.585 1.275l23.9 56.033c.163.386.56.62.976.62.129 0 .26-.023.387-.072.54-.2.802-.77.586-1.273l-23.9-56.035zm16.73-4.82c-.102-.544-.567-.89-1.048-.78-.48.114-.786.646-.687 1.19l11.226 60.992c.088.473.457.798.866.798.06 0 .123-.006.184-.021.478-.112.787-.646.686-1.187l-11.226-60.993z"></path><path fill="#307FA5" d="M451 390c-7.18 0-13 5.82-13 13s5.82 13 13 13 13-5.82 13-13-5.82-13-13-13"></path><path fill="#004F77" d="M297.944 428.025c-4.518 0-10.293-3.677-10.352-3.715a1.123 1.123 0 0 0-.854-.143c-.293.069-.54.253-.68.506l-1.558 2.83-2.16-1.568 2.55-1.927a.97.97 0 0 0 .394-.795.973.973 0 0 0-.437-.774c-5.94-4.032-6.733-11.467-6.741-11.541-.053-.544-.607-.945-1.146-.894-.578.05-1.007.529-.956 1.073.033.319.784 7.522 6.536 12.168l-2.562 1.938a.962.962 0 0 0-.392.78.964.964 0 0 0 .408.769l4.216 3.06a1.106 1.106 0 0 0 .875.185 1.05 1.05 0 0 0 .71-.513l1.609-2.922c1.983 1.133 6.542 3.458 10.54 3.458.583 0 1.056-.441 1.056-.987 0-.547-.473-.988-1.056-.988m167.003-23.145a1.007 1.007 0 0 0-1.131-.873c-.557.065-.956.56-.89 1.107.375 3.11-1.987 7.806-2.01 7.854a.987.987 0 0 0 .444 1.33l1.02.515-.865 1.094-.85-.921a1.046 1.046 0 0 0-.81-.33 1.033 1.033 0 0 0-.77.41c-2.996 4.047-8.962 3.938-9.04 3.938a.987.987 0 0 0-1.044.969c-.018.549.423 1.01.985 1.025.022 0 .079.002.17.002 1.04 0 6.337-.184 9.788-3.82l.874.948c.2.22.495.367.791.33.302-.011.584-.151.767-.386l2.365-2.985a.978.978 0 0 0 .188-.825 1.003 1.003 0 0 0-.525-.672l-1.245-.628c.733-1.655 2.13-5.262 1.788-8.082"></path><path fill="#934B4F" d="M294.33 277.652c-.628.854-.167 2.031-.167 2.031 1.803 2.317 9.972 2.317 9.972 2.317l6.865-4.189s-15.527-1.714-16.67-.16"></path><path fill="#E6E6E6" d="M697.486 545.838c1.979-10.533-12.046-11.352-22.026-10.653-9.982.701-48.46 7.085-48.46 17.011 0 7.858 11.978 11.27 24.712 12.28 12.735 1.01 39.234 7.398 45.774 0 6.54-7.401-1.978-8.106 0-18.638"></path><path fill="#F7A07F" d="M447.853 184.881c-.99-.259-3.204.261-3.204.261s1.346-1.75.396-2.098c-.95-.345-4.006 1.442-4.045 1.494l1.04.604L449 188s-.158-2.858-1.147-3.119m-8.25 2.119l-4.74.09s-2.738 4.557-1.576 7.352c1.16 2.794 19.506 14.558 19.506 14.558l7.207-7.13-5.827-7.51-14.57-7.36z"></path><path fill="#04324F" d="M461.686 196.156l-26.688-13.08a.73.73 0 0 0-.678.015l-8.879 4.86a.806.806 0 0 0-.408.628l-.028.256a.815.815 0 0 0 .438.82l27.073 13.27a.73.73 0 0 0 .678-.016l8.451-4.645a.695.695 0 0 0 .355-.615v-.975a.572.572 0 0 0-.314-.518"></path><path fill="#004F77" d="M456.605 194.113l-21.178-10.044a.701.701 0 0 0-.635.014l-7.622 4.065a.327.327 0 0 0 .013.58l21.431 10.204c.202.096.437.09.635-.014l7.426-3.96c.382-.23.508-.566-.07-.845"></path><path fill="#F7A07F" d="M449.43 201.143c-4.326-2.757-3.679-6.908-3.084-8.152.353-.74.57-3.059-.828-2.99-1.398.072-4.113 5.157-3.401 7.84 1.052 3.97 10.23 5.16 7.314 3.302"></path><path fill="#04324F" d="M691.037 468.671c-2.96-.93-3.727-6.188-6.774-7.971-3.048-1.786-12.186-.689-13.886-2-1.7-1.313-3.937-3.967-6.608-6.983-2.67-3.016-3.46-1.911-3.463 2.164-.006 4.075 1.83 13.383-1.063 18.816l-3.88 4.36c-41.347 33.217-18.913 69.298-19.826 69.871-.914.571-7.068 4.416-6.5 7.034.57 2.618 7.323-.456 12.1-2.622 4.776-2.169 12.71 1.691 18.38 1.793 5.67.104 16.197 7.451 19.643 7.836 3.448.382 4.49-2.807 3.43-5.154-1.063-2.35-13.248-3.035-13.499-6.255-.25-3.218 2.333-6.344 2.828-12.941.36-4.808-2.422-9-3.962-10.927l-.978-1.13s.406.413.978 1.13c2.533 2.917 9.397 10.76 13.138 14.46 2.49 2.459 5.794 1.624 7.143.173 1.351-1.451-.09-3.45-2.825-3.94-2.735-.493-7.802-15.746-12.966-26.246-5.164-10.498-5.16-14.573-5.16-14.573s2.254-7.75 4.26-9.17c2.006-1.418 5.467-1.28 15.523.824 10.056 2.103 10.652-14.593 9.512-16.803-.706-1.369-2.586-.815-5.545-1.746"></path><path fill="#04324F" d="M669 526c-.584-.634-1-1-1-1l1 1M456.57 284.099h-.07a2.603 2.603 0 0 1-2.598-2.53 2.593 2.593 0 0 1 2.53-2.665l.07-.002c.667 0 1.3.251 1.785.712a2.59 2.59 0 0 1 .811 1.817 2.603 2.603 0 0 1-2.528 2.668m-.19-7.095a4.463 4.463 0 0 0-3.146 1.401 4.468 4.468 0 0 0-1.232 3.216A4.506 4.506 0 0 0 456.5 286c.04 0 .08 0 .12-.002a4.508 4.508 0 0 0 4.378-4.617 4.472 4.472 0 0 0-1.4-3.146c-.875-.826-1.96-1.283-3.218-1.231"></path><path fill="#8E1C42" d="M450 279l4.49 5.678L485 298s-19.928-11.894-24.072-14.353C456.783 281.187 450 279 450 279"></path><path fill="#F7A07F" d="M616.504 309L611 315.013c1.58 8.755 1.602 15.384 5.194 19.687 2.916 3.494 3.336 1.343 1.297-2.529-.85-1.615 2.51-2.365 3.11-.641.302.865.449 2.157.298 4.068-.586 7.46 1.332 6.35 1.892 6.335.562-.015 5.897-11.38 5.135-14.742-.762-3.364-8.34-9.814-11.422-18.191"></path><path fill="#E6E6E6" d="M438.355 562.774c7.79 32.898 66.182 15.03 85.902 8.42 24.94-8.358 62.207 3.94 61.739-14.364-.469-18.306-156.392-31.018-147.64 5.944" opacity=".309"></path><path fill="#F7A07F" d="M520.116 109c-4.933 12.7-5.947 16.537-4.527 22.197s2.44 3.683 4.512 6.4c1.696 2.221.323 4.143.887 6.174.564 2.031 3.189 10.962 10.88 14.077 7.688 3.114-1.195-42.68-1.195-42.68L520.116 109z"></path><path fill="#04324F" d="M490.371 252.199c-.212.157-21.258 15.674-33.027 26.03a1.005 1.005 0 0 0-.087 1.429c.203.227.482.342.765.342.242 0 .484-.084.677-.256 11.703-10.297 32.678-25.763 32.889-25.918.453-.334.547-.97.21-1.419a1.027 1.027 0 0 0-1.427-.208"></path><path fill="#004F77" d="M552 561s5.43-1.253 6.776-2.222C560.12 557.808 564 549 564 549l-5.121.137L552 561z"></path><path fill="#04324F" d="M562.145 564.29s6.534 1.804 7.74-.34L571 545l-9 .91.145 18.38z"></path><path fill="#DF2A61" d="M570.293 532l-11.569.234s-7.74 19.43-11.915 21.067c-10.64 4.17-8.92 6.894-8.35 8.552.57 1.656 11.986 3.363 14.406.944 2.418-2.421 8.134-11.966 9.829-12.21 1.694-.244 8.386-1.205 9.427-2.39 1.04-1.187.976-4.028.72-7.013-.258-2.986-2.548-9.184-2.548-9.184"></path><path fill="#04324F" d="M488.18 570.852s6.86.665 7.736-.822L497 551l-9 .934.18 18.918z"></path><path fill="#DF2A61" d="M495.348 539l-14.973.306s-9.048 19.56-13.197 21.023c-10.949 3.859-10.35 7.918-10.06 9.636.61 3.59 22.2 1.811 24.568-.595 2.37-2.408 5.746-10.713 7.705-11.517 1.554-.637 6.728-1.562 7.748-2.741 1.017-1.181.957-4.007.704-6.976-.252-2.971-2.495-9.136-2.495-9.136"></path><path fill="#307FA5" d="M607.77 263.215s-20.457-8.649-20.767-1.17c-.307 7.478 19.868 52.368 20.68 54.489.772 2.02 16.77-2.98 15.21-6.323-1.56-3.343-15.123-46.996-15.123-46.996"></path><path fill="#FAB657" d="M588.158 276.098c6.584 5.071 26.842-12.889 26.842-12.889C600.682 242.388 583 200 583 200s.154 72.243 5.158 76.098"></path><path fill="#04324F" d="M600.636 276.114c-.033.017-3.279 1.715-5.987 2.38-.475.117-.75.542-.614.95.112.337.47.556.859.556.081 0 .164-.01.247-.029 2.948-.725 6.29-2.474 6.433-2.548.42-.222.553-.695.292-1.056-.257-.36-.806-.476-1.23-.253"></path><path fill="#307FA5" d="M538.992 423.67c10.456 55.283 12.306 99.18 14.76 116.593.153 1.077 4.458 1.737 4.458 1.737L562 327l-34 2.587s-.187 34.981 10.992 94.082"></path><path fill="#004F77" d="M545.139 413.66c1.179 16.113 11.07 127.332 11.07 127.332s13.906.336 13.573-3.235c-2.668-28.6.958-104.088 1.03-130.054C570.886 381.74 586 325 586 325l-35.312 2.745s-6.729 69.8-5.55 85.914"></path><path fill="#307FA5" d="M474.05 404.101c1.258 26.735-.254 107.597 3.049 142.234.142 1.49 7.848 2.665 7.848 2.665l.308-145.197L520 309.757 499.834 308s-27.155 66.925-25.784 96.101"></path><path fill="#004F77" d="M510.343 323s-27.301 47.297-29.236 82.095c-.873 15.705 3.883 142.902 3.883 142.902s15.013.244 14.775-3.462c-.86-13.31 5.3-118.45 8.697-137.271C511.86 388.44 555 349.52 555 349.52l-4.48-14.663L510.343 323z"></path><path fill="#04324F" d="M505.873 399.673c-.112.011-11.05 1.104-17.582-.638-.547-.142-1.104.163-1.254.686-.15.527.17 1.069.713 1.214 3.12.832 7.077 1.065 10.516 1.065 4.163 0 7.567-.34 7.82-.365.561-.058.968-.543.908-1.085-.058-.542-.582-.935-1.121-.877m-3.897 8.51c-11.09-.46-16.293-3.027-16.343-3.052-.513-.26-1.17-.12-1.479.308-.305.43-.144.987.364 1.247.224.115 5.65 2.828 17.35 3.314h.055c.571 0 1.047-.38 1.076-.865.028-.501-.43-.927-1.023-.953m64.76-1.146c-7.794 2.036-17.467.457-17.563.44-.546-.084-1.061.258-1.158.778-.096.52.267 1.015.813 1.107.247.041 3.892.639 8.553.639 3.08 0 6.606-.262 9.882-1.12.533-.139.848-.664.7-1.174a1 1 0 0 0-1.227-.67m1.023 4.297c-12.423 2.043-19.137-1.184-19.203-1.216-.516-.258-1.155-.075-1.43.407-.276.482-.082 1.08.433 1.338.222.112 4.373 2.138 12.175 2.138 2.441 0 5.244-.198 8.393-.718.575-.093.958-.607.857-1.145-.098-.54-.658-.903-1.225-.804"></path><path fill="#FAB657" d="M522.062 161.02c-3.508-.8-7.29 23.166-7.333 27.105C514.124 241.8 473 342.075 473 342.075S572.957 360.254 593.579 370c0 0 3.575-138.252-10.107-185.686 0 0-27.715-15.619-61.41-23.294"></path><path fill="#04324F" d="M579.497 160.315c-1.763-7.826 8.864-13.866 5.622-23.792-1.158-3.55-2.759-3.517-5.005-8.85-3.217-7.642-3.401-7.903-6.44-16.044-1.9-5.089-17.545-29.487-42.108-17.22-46.604 23.274-3.27 39.361-2.563 47.258 2.782 31.06 15.395 13.695 17.829 24.06 1.326 5.64-3.933 7.092-2.193 15.744 1.185 5.902 6.112 7.909 7.246 14.74.996 6.01-4.66 8.678-3.998 12.6 1.905 11.26 54.423 23.845 67.094 2.969 5.1-8.404 3.486-21.843-2.939-30.532-9.69-13.107-30.206-10.55-32.545-20.933"></path><path fill="#CE7E70" d="M536.406 231.082a1.003 1.003 0 0 0-1.311.502c-5.587 12.481-22.56 25.905-30.717 32.356-2.451 1.936-3.65 2.892-4.13 3.432a.97.97 0 0 0 .091 1.384 1 1 0 0 0 1.405-.09c.387-.436 1.928-1.655 3.878-3.197 8.281-6.547 25.51-20.173 31.293-33.093a.977.977 0 0 0-.509-1.294"></path><path fill="#04324F" d="M543.866 182.021a1.015 1.015 0 0 0-.778 1.2c5.655 27.297-16.267 78.56-30.775 112.482l-1.23 2.882c-.22.513.015 1.11.523 1.333a1 1 0 0 0 1.32-.529l1.232-2.882c14.607-34.156 36.683-85.775 30.897-113.7a1.015 1.015 0 0 0-1.19-.786"></path><path fill="#F7A07F" d="M526.83 131.305c-.685.52-.967 1.574-.767 2.533l2.433 11.614c-1.146 1.745 4.491-.283 1.737-11.84-.262-1.103-1.898-3.448-3.404-2.307"></path><path fill="#04324F" d="M659.33 478.177c-.077.05-1.904 1.227-4.846.395-3.45-.973-8.802-4.817-14.695-17.605-4.731-10.265-5.777-32.72-6.885-56.491-1.496-32.113-3.042-65.318-14.266-72.314a1.075 1.075 0 0 0-1.475.339c-.313.5-.161 1.157.34 1.471 10.271 6.4 11.861 40.51 13.261 70.603 1.12 23.984 2.173 46.64 7.08 57.283 5.037 10.929 10.472 17.253 16.16 18.795a9.576 9.576 0 0 0 2.522.347c2.446 0 3.938-1.01 4.019-1.065.48-.336.598-.991.269-1.474-.33-.487-1-.608-1.484-.284"></path><path fill="#911B3F" d="M503.53 300s-9.797 37.405-5.39 35.96c4.406-1.45 21.86-31.988 21.86-31.988s-3.694-1.919-7.222-2.7c-3.53-.782-9.248-1.272-9.248-1.272"></path><path fill="#DF2A61" d="M451.747 279s-8.446 28.46-4.86 37.136c5.818 14.084 40.221 26.222 51.324 18.416 7.489-5.267 5.568-36.016 5.568-36.016-13.957-3.405-47.29-15.417-52.032-19.536"></path><path fill="#FFF" d="M455.473 287.912c-2.029-1.112-3.19-1.802-3.198-1.806-.434-.255-.972-.037-1.185.507-.215.541-.03 1.194.412 1.456 0 0 1.179.702 3.247 1.836.119.064.241.095.362.095.339 0 .664-.24.812-.647.2-.55 0-1.194-.45-1.44m13.904 3.505a268.077 268.077 0 0 1-7.06-2.357c-.485-.17-1.044.029-1.246.447-.199.418.036.894.525 1.065 2.139.746 4.532 1.553 7.115 2.375.108.035.222.052.332.052.388 0 .752-.204.897-.532.184-.422-.069-.893-.563-1.05m15.947 7.789a186.979 186.979 0 0 1-7.089-2.16c-.488-.158-1.025.098-1.186.576a.91.91 0 0 0 .591 1.158c2.432.792 4.843 1.525 7.161 2.183a.98.98 0 0 0 .262.036c.406 0 .781-.26.9-.66a.912.912 0 0 0-.64-1.133m10.998 3.717a87.683 87.683 0 0 1-3.279-.895c-.46-.136-.912.216-1.019.78-.108.564.175 1.128.629 1.26 1.11.325 2.221.63 3.331.91a.714.714 0 0 0 .172.021c.393 0 .745-.342.828-.841.093-.566-.203-1.12-.662-1.235"></path><path fill="#04324F" d="M513.387 302.289a2.59 2.59 0 0 1-1.817.81h-.07a2.605 2.605 0 0 1-2.598-2.53 2.606 2.606 0 0 1 2.53-2.668h.07a2.604 2.604 0 0 1 2.598 2.53 2.593 2.593 0 0 1-.713 1.858m-2.006-6.287a4.505 4.505 0 0 0-4.38 4.618A4.508 4.508 0 0 0 511.5 305c.041 0 .08 0 .122-.002 1.2-.03 2.318-.53 3.145-1.401a4.46 4.46 0 0 0 1.231-3.216c-.066-2.482-2.126-4.461-4.617-4.379"></path><path fill="#307FA5" d="M458.763 200s-11.242 5.306-9.599 9.471L489.292 258 497 238.59s-33.048-33.673-38.237-38.59"></path><path fill="#FAB657" d="M528.992 186.676c-16.446 18.772-30.532 44.988-38.646 42.467-4.048-1.257-2.18 39.041.528 38.857 13.6-.923 48.216-36.837 53.669-65.375 3.262-17.067-11.884-20.136-15.551-15.949"></path><path fill="#DF2A61" d="M588.264 152.08c-6.463 3.522-38.915 9.429-47.684 11.255-8.77 1.825-33.608 6.58-38.574 9.439-4.963 2.859-5.028 4.886-5.003 6.67.048 3.32 4.15 5.71 6.666 9.769 3.875 6.256 7.498 14.315 10.461 12.536 3.297-1.98 21.002-22.14 38.304-26.24 17.3-4.097 45.93-.872 51.586-3.93 3.883-2.098-5.015-9.775-5.194-11.477-.606-5.81-4.1-11.545-10.562-8.022M661.007 473L657 477.554c.44 4.785 8.626 11.388 14.137 14.446l2.863-4.69s-10.785-6.564-12.993-14.31"></path><path fill="#FFF" d="M666.32 522.552c-5.493-1.634-10.85.742-14.048 2.164l-.706.31c-.515.227-.714.758-.448 1.19.269.433.907.596 1.423.375l.72-.318c3.078-1.368 7.735-3.433 12.355-2.058 3.654 1.083 6.802 4.195 9.362 9.247.17.337.56.538.97.538.136 0 .276-.023.411-.07.535-.19.784-.707.557-1.155-2.795-5.526-6.36-8.965-10.596-10.223"></path><path fill="#DF2A61" d="M696.507 470.048c-1.793.857 1.607 3.527 3.44 3.952 0 0 .22-2.696-.236-3.175-.454-.48-2.77-.985-3.204-.777"></path><path fill="#CE7E70" d="M491.805 232.79c-.144-.585-.656-.918-1.144-.743-.487.172-.767.787-.623 1.37l4.157 16.793c.118.48.485.79.883.79a.758.758 0 0 0 .261-.046c.489-.173.767-.787.623-1.37l-4.157-16.794zm5.891-.38a.922.922 0 0 0-1.289-.247.939.939 0 0 0-.246 1.3l4.142 6.127a.926.926 0 0 0 1.291.247.939.939 0 0 0 .244-1.3l-4.142-6.127zM594.09 241c-.631.027-1.118.476-1.089 1.003 1 16.555.64 26.908.636 27.013-.018.525.48.967 1.112.982.014.002.025.002.037.002.617 0 1.128-.41 1.148-.927.002-.103.366-10.525-.64-27.167-.03-.525-.52-.915-1.204-.906"></path><path fill="#004F77" d="M457 197c-.552 0-1 .224-1 .5 0 .278.448.5 1 .5s1-.222 1-.5c0-.276-.448-.5-1-.5"></path><path fill="#911B3F" d="M589.572 164.093c-5.097 2.366-12.677 3.07-22.27 3.96-3.914.362-8.348.775-13.104 1.345-12.06 1.447-24.425 8.08-33.454 12.923-3.56 1.91-6.634 3.557-9.102 4.6-.522.221-.778.848-.57 1.401.16.422.543.678.947.678a1 1 0 0 0 .379-.075c2.555-1.08 5.666-2.75 9.268-4.68 8.89-4.77 21.065-11.302 32.76-12.704 4.732-.568 9.153-.98 13.053-1.341 9.781-.906 17.506-1.622 22.912-4.133.514-.24.749-.877.523-1.42-.228-.548-.829-.796-1.342-.554m3.91-6.967c-7.835 4.199-30.424 7.996-30.651 8.033-.55.093-.914.575-.815 1.08.09.447.515.761.992.761.061 0 .122-.005.183-.016.942-.156 23.167-3.892 31.307-8.255.482-.258.644-.827.366-1.268-.282-.44-.896-.594-1.383-.335"></path></g></svg> 